<mxfile host="app.diagrams.net" modified="2023-12-05T11:29:04.659Z" agent="Mozilla/5.0 (Macintosh; Intel Mac OS X 10_15_7) AppleWebKit/537.36 (KHTML, like Gecko) Chrome/119.0.0.0 Safari/537.36" etag="6BDSqynCH80FxeHl_Jz5" version="22.1.5" type="github">
  <diagram name="페이지-1" id="Mbqo-7pieS93lbDn2mV4">
    <mxGraphModel dx="856" dy="546" grid="1" gridSize="10" guides="1" tooltips="1" connect="1" arrows="1" fold="1" page="1" pageScale="1" pageWidth="827" pageHeight="1169" math="0" shadow="0">
      <root>
        <mxCell id="0" />
        <mxCell id="1" parent="0" />
        <mxCell id="FpCpghhH3lEX5Ye0WDvZ-10" style="edgeStyle=orthogonalEdgeStyle;rounded=0;orthogonalLoop=1;jettySize=auto;html=1;" edge="1" parent="1" source="FpCpghhH3lEX5Ye0WDvZ-1" target="FpCpghhH3lEX5Ye0WDvZ-2">
          <mxGeometry relative="1" as="geometry" />
        </mxCell>
        <mxCell id="FpCpghhH3lEX5Ye0WDvZ-1" value="데이터 수집" style="html=1;whiteSpace=wrap;" vertex="1" parent="1">
          <mxGeometry x="200" y="150" width="110" height="50" as="geometry" />
        </mxCell>
        <mxCell id="FpCpghhH3lEX5Ye0WDvZ-11" style="edgeStyle=orthogonalEdgeStyle;rounded=0;orthogonalLoop=1;jettySize=auto;html=1;entryX=0;entryY=0.5;entryDx=0;entryDy=0;" edge="1" parent="1" source="FpCpghhH3lEX5Ye0WDvZ-2" target="FpCpghhH3lEX5Ye0WDvZ-5">
          <mxGeometry relative="1" as="geometry" />
        </mxCell>
        <mxCell id="FpCpghhH3lEX5Ye0WDvZ-2" value="이미지 생성&amp;nbsp;&lt;br&gt;(SinGAN)" style="html=1;whiteSpace=wrap;" vertex="1" parent="1">
          <mxGeometry x="360" y="150" width="110" height="50" as="geometry" />
        </mxCell>
        <mxCell id="FpCpghhH3lEX5Ye0WDvZ-12" style="edgeStyle=orthogonalEdgeStyle;rounded=0;orthogonalLoop=1;jettySize=auto;html=1;entryX=0;entryY=0.5;entryDx=0;entryDy=0;" edge="1" parent="1" source="FpCpghhH3lEX5Ye0WDvZ-5" target="FpCpghhH3lEX5Ye0WDvZ-6">
          <mxGeometry relative="1" as="geometry" />
        </mxCell>
        <mxCell id="FpCpghhH3lEX5Ye0WDvZ-5" value="객체 감지 및 라벨링" style="html=1;whiteSpace=wrap;" vertex="1" parent="1">
          <mxGeometry x="518.5" y="150" width="110" height="50" as="geometry" />
        </mxCell>
        <mxCell id="FpCpghhH3lEX5Ye0WDvZ-13" style="edgeStyle=orthogonalEdgeStyle;rounded=0;orthogonalLoop=1;jettySize=auto;html=1;entryX=0.5;entryY=0;entryDx=0;entryDy=0;exitX=0.5;exitY=1;exitDx=0;exitDy=0;" edge="1" parent="1" source="FpCpghhH3lEX5Ye0WDvZ-6" target="FpCpghhH3lEX5Ye0WDvZ-7">
          <mxGeometry relative="1" as="geometry">
            <mxPoint x="740" y="240" as="sourcePoint" />
            <mxPoint x="255" y="344.96" as="targetPoint" />
          </mxGeometry>
        </mxCell>
        <mxCell id="FpCpghhH3lEX5Ye0WDvZ-6" value="객체 인식 모델 학습&lt;br&gt;(Yolov8)" style="html=1;whiteSpace=wrap;" vertex="1" parent="1">
          <mxGeometry x="680" y="150" width="110" height="50" as="geometry" />
        </mxCell>
        <mxCell id="FpCpghhH3lEX5Ye0WDvZ-14" style="edgeStyle=orthogonalEdgeStyle;rounded=0;orthogonalLoop=1;jettySize=auto;html=1;entryX=0;entryY=0.5;entryDx=0;entryDy=0;" edge="1" parent="1" source="FpCpghhH3lEX5Ye0WDvZ-7" target="FpCpghhH3lEX5Ye0WDvZ-8">
          <mxGeometry relative="1" as="geometry" />
        </mxCell>
        <mxCell id="FpCpghhH3lEX5Ye0WDvZ-7" value="장애인 표시 마크&amp;nbsp;&lt;br&gt;입력" style="html=1;whiteSpace=wrap;" vertex="1" parent="1">
          <mxGeometry x="200" y="280" width="110" height="50" as="geometry" />
        </mxCell>
        <mxCell id="FpCpghhH3lEX5Ye0WDvZ-15" style="edgeStyle=orthogonalEdgeStyle;rounded=0;orthogonalLoop=1;jettySize=auto;html=1;entryX=0;entryY=0.5;entryDx=0;entryDy=0;" edge="1" parent="1" source="FpCpghhH3lEX5Ye0WDvZ-8" target="FpCpghhH3lEX5Ye0WDvZ-9">
          <mxGeometry relative="1" as="geometry" />
        </mxCell>
        <mxCell id="FpCpghhH3lEX5Ye0WDvZ-8" value="장애인 표시 인식" style="html=1;whiteSpace=wrap;" vertex="1" parent="1">
          <mxGeometry x="360" y="280" width="110" height="50" as="geometry" />
        </mxCell>
        <mxCell id="FpCpghhH3lEX5Ye0WDvZ-9" value="결과 확인 및 저장" style="html=1;whiteSpace=wrap;" vertex="1" parent="1">
          <mxGeometry x="518.5" y="280" width="110" height="50" as="geometry" />
        </mxCell>
        <mxCell id="FpCpghhH3lEX5Ye0WDvZ-19" value="&lt;font style=&quot;font-size: 15px;&quot;&gt;&amp;lt;개발 단계&amp;gt;&lt;/font&gt;" style="text;html=1;strokeColor=none;fillColor=none;align=center;verticalAlign=middle;whiteSpace=wrap;rounded=0;" vertex="1" parent="1">
          <mxGeometry x="90" y="160" width="80" height="30" as="geometry" />
        </mxCell>
        <mxCell id="FpCpghhH3lEX5Ye0WDvZ-20" style="edgeStyle=orthogonalEdgeStyle;rounded=0;orthogonalLoop=1;jettySize=auto;html=1;exitX=0.5;exitY=1;exitDx=0;exitDy=0;" edge="1" parent="1" source="FpCpghhH3lEX5Ye0WDvZ-19" target="FpCpghhH3lEX5Ye0WDvZ-19">
          <mxGeometry relative="1" as="geometry" />
        </mxCell>
        <mxCell id="FpCpghhH3lEX5Ye0WDvZ-21" value="&lt;font style=&quot;font-size: 15px;&quot;&gt;&amp;lt;사용 단계&amp;gt;&lt;/font&gt;" style="text;html=1;strokeColor=none;fillColor=none;align=center;verticalAlign=middle;whiteSpace=wrap;rounded=0;" vertex="1" parent="1">
          <mxGeometry x="90" y="290" width="80" height="30" as="geometry" />
        </mxCell>
      </root>
    </mxGraphModel>
  </diagram>
</mxfile>
